<?xml version="1.0" encoding="UTF-8"?>
<!-- Generator: Adobe Illustrator 16.0.0, SVG Export Plug-In . SVG Version: 6.00 Build 0)  -->
<!DOCTYPE svg PUBLIC "-//W3C//DTD SVG 1.1//EN" "http://www.w3.org/Graphics/SVG/1.1/DTD/svg11.dtd">
<svg version="1.1" id="Layer_1" xmlns="http://www.w3.org/2000/svg" xmlns:xlink="http://www.w3.org/1999/xlink" x="0px" y="0px" width="256px" height="256px" viewBox="0 0 256 256" enable-background="new 0 0 256 256" xml:space="preserve">
<rect fill="#E05C5C" width="256" height="256"/>
<g>
	<path opacity="0.6" fill="#B94352" d="M153.571,94.757c0,2.702-1.967,4.891-4.393,4.891H17.824c-2.428,0-4.396-2.189-4.396-4.891   V65.036c0-2.702,1.968-4.89,4.396-4.89h131.354c2.426,0,4.393,2.188,4.393,4.89V94.757z"/>
	<path fill="#FFDE00" d="M153.571,92.728c0,2.702-1.967,4.891-4.393,4.891H17.824c-2.428,0-4.396-2.189-4.396-4.891V63.006   c0-2.7,1.968-4.89,4.396-4.89h131.354c2.426,0,4.393,2.189,4.393,4.89V92.728z"/>
	<g>
		<path d="M30.194,74.596c0-0.999,0.099-1.929,0.294-2.792c0.196-0.861,0.522-1.61,0.982-2.247c0.459-0.637,1.063-1.136,1.813-1.499    c0.752-0.361,1.683-0.544,2.793-0.544c1.109,0,2.042,0.183,2.797,0.55c0.754,0.366,1.359,0.869,1.814,1.503    c0.455,0.638,0.781,1.386,0.977,2.249s0.294,1.787,0.294,2.78v6.615c0,2.745-0.788,4.777-2.364,6.093    c0.223,0.481,0.873,0.722,1.953,0.722v2.452c-2.02,0-3.5-0.748-4.439-2.242c-0.162,0.015-0.334,0.028-0.516,0.039    c-0.182,0.012-0.376,0.018-0.582,0.018c-1.006,0-1.875-0.171-2.604-0.511s-1.332-0.818-1.81-1.437    c-0.478-0.618-0.831-1.355-1.06-2.208c-0.229-0.854-0.344-1.796-0.344-2.825V74.596z M37.918,73.586    c0-0.34-0.025-0.686-0.078-1.037c-0.051-0.352-0.145-0.67-0.283-0.954c-0.137-0.285-0.322-0.517-0.561-0.694    c-0.236-0.177-0.543-0.266-0.92-0.266c-0.371,0-0.676,0.088-0.916,0.266s-0.43,0.409-0.566,0.694    c-0.137,0.284-0.231,0.603-0.283,0.954c-0.051,0.352-0.078,0.697-0.078,1.037v8.624c0,1.961,0.615,2.942,1.844,2.942    c1.227,0,1.842-0.981,1.842-2.942V73.586z"/>
		<path d="M43.99,67.905h4.04v13.572c0,0.519,0.011,1.001,0.033,1.449c0.021,0.448,0.088,0.836,0.2,1.166    c0.11,0.328,0.284,0.588,0.521,0.777c0.237,0.189,0.573,0.284,1.009,0.284c0.475,0,0.846-0.112,1.117-0.334    c0.27-0.221,0.456-0.614,0.561-1.176c0.088-0.511,0.133-1.613,0.133-3.309V67.905h4.039v12.553c0,0.643-0.021,1.282-0.066,1.919    s-0.137,1.242-0.277,1.821c-0.141,0.576-0.34,1.114-0.6,1.613c-0.26,0.5-0.605,0.931-1.037,1.294    c-0.434,0.362-0.965,0.647-1.593,0.854c-0.628,0.207-1.38,0.312-2.253,0.312c-0.844,0-1.574-0.099-2.191-0.294    c-0.619-0.196-1.145-0.468-1.576-0.815c-0.434-0.349-0.783-0.766-1.049-1.25c-0.268-0.484-0.477-1.016-0.627-1.592    c-0.152-0.576-0.255-1.194-0.307-1.848c-0.051-0.654-0.077-1.326-0.077-2.013V67.905z"/>
		<path d="M57.93,67.905h4.039v19.978H57.93V67.905z"/>
		<path d="M64.09,74.596c0-4.721,1.931-7.082,5.793-7.082c1.036,0,1.91,0.167,2.625,0.5c0.715,0.334,1.291,0.796,1.732,1.389    c0.439,0.591,0.758,1.294,0.953,2.109c0.196,0.813,0.295,1.702,0.295,2.662v1.721h-3.973v-1.842c0-0.428-0.018-0.845-0.051-1.25    c-0.033-0.402-0.105-0.761-0.217-1.076c-0.11-0.314-0.275-0.57-0.494-0.765c-0.218-0.196-0.509-0.306-0.871-0.328    c-1.17,0-1.754,0.984-1.754,2.951v8.624c0,1.961,0.584,2.942,1.754,2.942c0.362,0,0.651-0.102,0.866-0.306    c0.215-0.204,0.382-0.471,0.499-0.799c0.119-0.329,0.195-0.697,0.234-1.105c0.036-0.406,0.055-0.814,0.055-1.22v-2.053h3.951    l-0.012,1.687c-0.015,0.592-0.059,1.173-0.133,1.743s-0.195,1.111-0.366,1.625s-0.394,0.988-0.671,1.421    c-0.278,0.433-0.62,0.807-1.027,1.121c-0.406,0.315-0.893,0.56-1.454,0.737s-1.21,0.267-1.942,0.267    c-0.748,0-1.408-0.087-1.98-0.261c-0.574-0.174-1.075-0.417-1.504-0.727c-0.43-0.311-0.793-0.683-1.088-1.116    c-0.296-0.433-0.535-0.911-0.717-1.437s-0.311-1.087-0.388-1.681c-0.077-0.597-0.116-1.208-0.116-1.837V74.596z"/>
		<path d="M77.375,67.905h4.04v7.58l3.13-7.58h4.517l-4.072,8.179l4.372,11.798h-4.195l-3.018-9.135l-0.733,1.888v7.247h-4.04    V67.905z"/>
		<path d="M92.758,67.905h3.829l1.765,12.107l1.954-12.107h3.773l-3.95,19.978h-3.696L92.758,67.905z"/>
		<path d="M105.578,67.905h4.041v19.978h-4.041V67.905z"/>
		<path d="M111.994,67.905h8.335v2.774h-4.296v5.439h3.042v2.84h-3.042v6.149h4.296v2.774h-8.335V67.905z"/>
		<path d="M121.029,67.905h3.438l1.244,13.229l1.709-13.229h2.962l1.675,13.151l1.3-13.151h3.451l-2.798,19.978h-3.45l-1.675-13.075    l-1.642,13.075h-3.453L121.029,67.905z"/>
	</g>
	<path opacity="0.6" fill-rule="evenodd" clip-rule="evenodd" fill="#B94352" d="M74.254,119.673   c0.201-1.975,0.369-3.777,0.57-5.573c0.555-4.979,1.1-9.961,1.693-14.935c0.295-2.455,1.217-4.671,3.055-6.371   c2.525-2.34,5.504-2.485,8.539-1.328c2.897,1.102,4.379,3.466,4.578,6.475c0.138,2.046-0.104,4.123-0.254,6.179   c-0.146,1.999-0.395,3.991-0.608,6.101c0.484-0.001,0.75,0,1.017,0c3.58,0,6.783,0.777,8.783,4.16   c0.124,0.204,0.605,0.305,0.903,0.278c2.194-0.201,4.281,0.109,6.189,1.256c1.403,0.842,2.367,2.065,3.014,3.569   c0.098,0.225,0.466,0.49,0.693,0.476c5.505-0.34,8.91,3.771,9.02,8.538c0.056,2.446-0.311,4.904-0.524,7.354   c-0.366,4.172-0.8,8.324-2.109,12.348c-2.373,7.275-6.373,13.506-11.754,18.885c-0.179,0.18-0.334,0.381-0.495,0.578   c-0.681,0.822-1.542,1.098-2.614,1.102c-8.745,0.033-17.203,0.322-25.996-0.576c-1.08-0.109-1.795-0.719-2.303-1.645   c-4.715-8.613-8.645-19.816-11.404-29.234c-0.795-2.705-1.734-5.391-2.885-7.961c-2.569-5.736,1.246-10.366,6.43-11.004   C70.007,118.067,72.107,118.519,74.254,119.673z"/>
	<g>
		<path fill-rule="evenodd" clip-rule="evenodd" fill="#FFFFFF" d="M79.882,124.482c0,0,0.203-27.196,2.131-29.327    c1.929-2.13,8.017-3.855,8.931,0.913c0.913,4.77,0.812,24.252,0.812,24.252s-0.711-10.653,5.479-9.842    c6.191,0.811,5.685,8.625,5.685,8.625s2.942-7.407,6.898-4.768c3.959,2.638,3.959,8.928,3.959,8.928s0.709-7.813,5.377-4.768    s4.161,10.655,2.537,23.542c-1.623,12.889-7.712,21.107-14.512,20.906c-6.798-0.205-18.672-0.711-20.802-0.711    s-6.291-5.785-9.741-13.7c-3.451-7.914-6.495-17.353-7.916-19.889c-1.42-2.538,0.813-6.8,3.654-7.206    C75.214,121.033,79.882,124.482,79.882,124.482z"/>
		<path fill-rule="evenodd" clip-rule="evenodd" d="M77.901,119.305c0-1.987-0.016-3.793,0.002-5.602    c0.048-5.011,0.086-10.021,0.174-15.032c0.043-2.472,0.738-4.769,2.393-6.647c2.275-2.582,5.225-3.028,8.362-2.185    c2.991,0.802,4.707,3.003,5.21,5.979c0.343,2.021,0.315,4.111,0.372,6.171c0.059,2.005,0.013,4.012,0.013,6.13    c0.479-0.049,0.745-0.074,1.01-0.102c3.562-0.362,6.829,0.087,9.16,3.249c0.142,0.192,0.633,0.242,0.928,0.186    c2.163-0.421,4.27-0.323,6.285,0.624c1.48,0.694,2.563,1.815,3.359,3.244c0.12,0.214,0.513,0.443,0.737,0.405    c5.441-0.895,9.246,2.848,9.837,7.581c0.303,2.428,0.188,4.91,0.223,7.369c0.06,4.188,0.047,8.363-0.848,12.498    c-1.624,7.478-4.973,14.082-9.782,19.977c-0.159,0.197-0.292,0.414-0.435,0.627c-0.594,0.887-1.418,1.357-2.489,1.357    c-8.836,0-17.674-0.006-26.511-0.008c-1.087,0-1.859-0.533-2.458-1.404c-5.562-8.092-10.014-16.771-13.715-25.861    c-1.063-2.609-2.271-5.188-3.675-7.626c-3.137-5.448,0.189-10.438,5.283-11.599C73.512,118.138,75.647,118.375,77.901,119.305z     M83.889,112.345c-0.102,0-0.204,0-0.306,0.001c0,3.68,0.007,7.359-0.005,11.039c-0.002,1.244,0.029,2.498-0.116,3.727    c-0.153,1.296-1.149,2.191-2.333,2.346c-1.396,0.186-2.486-0.425-3.121-1.664c-0.384-0.749-0.771-1.524-1.306-2.163    c-1.286-1.534-3.415-1.894-5.062-0.958c-1.076,0.611-1.271,1.286-0.692,2.382c0.659,1.249,1.384,2.469,1.964,3.754    c2.029,4.507,3.984,9.048,6.012,13.557c2.211,4.916,5.037,9.476,8.096,13.901c0.57,0.824,1.127,1.131,2.113,1.121    c6.381-0.049,12.763-0.104,19.142,0.012c1.749,0.031,2.862-0.434,3.942-1.848c4.205-5.494,6.974-11.609,7.628-18.487    c0.443-4.66,0.317-9.38,0.326-14.073c0.002-0.897-0.442-1.858-0.886-2.68c-0.396-0.73-1.227-1.056-2.06-0.855    c-0.848,0.206-0.969,1.04-1.098,1.752c-0.122,0.694-0.131,1.407-0.186,2.113c-0.117,1.533-1.388,2.646-2.988,2.611    c-1.475-0.032-2.696-1.218-2.713-2.702c-0.01-0.902,0.036-1.813,0.143-2.707c0.164-1.389,0.283-2.769-0.184-4.114    c-0.397-1.142-1.66-1.656-3.207-1.36c-0.819,0.157-1.231,0.834-1.228,2.05c0.005,1.161,0.052,2.322,0.026,3.483    c-0.03,1.458-1.223,2.646-2.709,2.755c-1.363,0.103-2.877-0.989-2.96-2.377c-0.133-2.252-0.042-4.517-0.117-6.774    c-0.021-0.64-0.09-1.523-0.493-1.857c-1.006-0.826-2.317-0.93-3.526-0.447c-1.019,0.409-1.226,1.421-1.214,2.422    c0.021,1.699,0.112,3.395,0.133,5.093c0.026,1.908-1.418,3.291-3.214,3.117c-1.476-0.143-2.529-1.297-2.604-3.059    c-0.091-2.171-0.056-4.348-0.103-6.522c-0.085-3.906-0.181-7.812-0.294-11.716c-0.062-2.034-0.108-4.072-0.288-6.099    c-0.106-1.214-0.642-1.688-1.569-1.814c-1.09-0.148-2.023,0.26-2.447,1.25c-0.281,0.659-0.472,1.409-0.478,2.12    C83.869,103.23,83.889,107.789,83.889,112.345z"/>
	</g>
</g>
<g>
	<path opacity="0.6" fill="#B94352" d="M242.222,28.406c-2.44,0-4.417,1.917-4.551,4.325H123.036v144.216H242.08V37.549   c0.048,0.001,0.093,0.014,0.142,0.014c2.531,0,4.58-2.05,4.58-4.579C246.802,30.456,244.753,28.406,242.222,28.406z"/>
	<rect x="115.536" y="18.73" fill="#FFFFFF" width="119.044" height="150.222"/>
	<rect x="129.985" y="33.611" fill="#CCCCCC" width="90.143" height="50.366"/>
	<rect x="129.985" y="91.131" fill="#CCCCCC" width="90.143" height="3.72"/>
	<rect x="129.985" y="96.997" fill="#CCCCCC" width="46.358" height="3.721"/>
	<rect x="129.985" y="114.885" fill="#CCCCCC" width="90.143" height="3.72"/>
	<rect x="129.985" y="121.753" fill="#CCCCCC" width="90.143" height="3.72"/>
	<rect x="129.985" y="128.621" fill="#CCCCCC" width="68.68" height="3.721"/>
	<rect x="129.985" y="109.019" fill="#CCCCCC" width="4.292" height="3.719"/>
	<rect x="137.231" y="109.019" fill="#CCCCCC" width="24.141" height="3.719"/>
	<g>
		<path fill="#4D4D4D" d="M238.968,19.067c0,2.529-2.049,4.579-4.58,4.579c-2.527,0-4.576-2.05-4.576-4.579    c0-2.528,2.049-4.578,4.576-4.578C236.919,14.489,238.968,16.539,238.968,19.067z"/>
		<path fill="#FFFFFF" d="M235.079,19.067l1.416-1.416c0.19-0.191,0.19-0.5,0-0.69c-0.191-0.19-0.499-0.19-0.689,0l-1.418,1.417    l-1.416-1.417c-0.189-0.19-0.498-0.19-0.689,0c-0.189,0.19-0.189,0.499,0,0.69l1.416,1.416l-1.416,1.416    c-0.189,0.191-0.189,0.5,0,0.69c0.096,0.096,0.222,0.143,0.345,0.143c0.127,0,0.251-0.047,0.345-0.143l1.416-1.417l1.418,1.417    c0.096,0.096,0.219,0.143,0.344,0.143c0.126,0,0.251-0.047,0.346-0.143c0.19-0.19,0.19-0.499,0-0.69L235.079,19.067z"/>
	</g>
	<rect x="129.497" y="140.997" fill="#CCCCCC" width="15.667" height="15.667"/>
	<rect x="149.83" y="140.997" fill="#CCCCCC" width="15.667" height="15.667"/>
	<rect x="170.83" y="140.997" fill="#CCCCCC" width="15.667" height="15.667"/>
</g>
<polygon opacity="0.3" points="84.606,77.158 115.54,18.73 115.54,146.935 "/>
<path fill-rule="evenodd" clip-rule="evenodd" fill="#FFFFFF" d="M191.055,74.091h-28.391c-1.255,0-2.272-1.014-2.272-2.266V52.57  c0-1.251,1.018-2.265,2.272-2.265h2.271v-3.398l9.085,0.071l-0.003,3.347l17.038-0.019c1.255,0,2.272,1.014,2.272,2.265v19.255  C193.327,73.077,192.31,74.091,191.055,74.091z M171.75,49.172h-4.544v3.398h4.544V49.172z M172.885,54.788  c-4.391,0-7.95,3.55-7.95,7.929c0,4.379,3.56,7.928,7.95,7.928s7.949-3.549,7.949-7.928  C180.834,58.338,177.275,54.788,172.885,54.788z M188.217,53.16c-1.255,0-2.271,1.014-2.271,2.265c0,1.251,1.017,2.265,2.271,2.265  c1.254,0,2.271-1.014,2.271-2.265C190.487,54.174,189.471,53.16,188.217,53.16z M172.885,68.003c-2.822,0-5.11-2.282-5.11-5.097  c0-2.814,2.288-5.096,5.11-5.096s5.111,2.282,5.111,5.096C177.996,65.721,175.707,68.003,172.885,68.003z"/>
<path opacity="0.6" fill-rule="evenodd" clip-rule="evenodd" fill="#B94352" d="M104.663,185.67L34.333,256l99.981-0.006  l20.419-20.419c0,0-11.748,8.934-25.217,9.585c-16.393,0.793-26.687-8.468-32.786-24.324  C90.121,203.65,104.663,185.67,104.663,185.67z"/>
<g>
	<path fill="#FFFFFF" d="M140.737,220.764c0,0-18.245,0-19.231,0c-0.987,0-1.562,0.164-1.562,0.822c0,0.657-0.329,1.726,1.397,1.726   c1.15,0,15.861,0,17.835,0c1.972,0,2.958,0.822,2.958,2.465c0,2.115-1.974,2.138-3.37,2.138c-0.903,0-17.67,0-20.053,0   c-2.384,0-3.041-0.904-3.041-3.535c0-2.629,0-21.203,0-21.203s-1.562,0-3.452,0s-2.645-0.931-2.63-2.22   c0.018-1.561,1.397-2.054,3.206-2.054c1.808,0,4.273,0,5.835,0s1.973,1.314,1.973,2.712c0,1.396,0,3.944,0,3.944h28.519   L140.737,220.764z"/>
	<circle fill="#FFFFFF" cx="118.342" cy="233.298" r="3.534"/>
	<circle fill="#FFFFFF" cx="138.149" cy="233.298" r="3.534"/>
	<path fill="#FFFFFF" d="M127.998,182.656c16.166,0,29.315,13.148,29.315,29.313s-13.149,29.313-29.315,29.313   c-16.163,0-29.312-13.149-29.312-29.313S111.835,182.656,127.998,182.656 M127.998,176.738c-19.456,0-35.229,15.774-35.229,35.23   c0,19.459,15.774,35.231,35.229,35.231c19.457,0,35.233-15.772,35.233-35.231C163.231,192.513,147.455,176.738,127.998,176.738   L127.998,176.738z"/>
</g>
</svg>